<mxfile host="app.diagrams.net" modified="2023-01-17T08:21:20.214Z" agent="5.0 (Macintosh; Intel Mac OS X 10_15_7) AppleWebKit/605.1.15 (KHTML, like Gecko) Version/16.1 Safari/605.1.15" version="20.8.5" etag="Yf7TuMkDVdeq_mR0lIMA" type="github">
  <diagram id="9-hA2Ws6iGPtdc48psQV" name="第 1 页">
    <mxGraphModel dx="1301" dy="943" grid="1" gridSize="10" guides="1" tooltips="1" connect="1" arrows="1" fold="1" page="1" pageScale="1" pageWidth="827" pageHeight="1169" math="0" shadow="0">
      <root>
        <mxCell id="0" />
        <mxCell id="1" parent="0" />
      </root>
    </mxGraphModel>
  </diagram>
</mxfile>
